<svg id="Capa_1" enable-background="new 0 0 512 512" height="512" viewBox="0 0 512 512" width="512" xmlns="http://www.w3.org/2000/svg"><g><g><g><path d="m437.358 17.966v380.602h-362.716v-314.658l76.409-76.41h275.842c5.78 0 10.465 4.686 10.465 10.466z" fill="#ddebfd"/><path d="m426.893 7.5h-32c5.78 0 10.466 4.686 10.466 10.466v380.602h32v-380.602c-.001-5.78-4.686-10.466-10.466-10.466z" fill="#bed9fd"/><path d="m333.206 367.105-36.15-32.69c-1.838-1.662-4.229-2.583-6.707-2.583h-232.289c-5.523 0-10 4.477-10 10v152.668c0 5.523 4.477 10 10 10h395.88c5.523 0 10-4.477 10-10v-114.812c0-5.523-4.477-10-10-10h-114.026c-2.479 0-4.869-.921-6.708-2.583z" fill="#eec06b"/><g fill="#e9a761"><path d="m453.94 369.688h-32c5.523 0 10 4.477 10 10v114.812c0 5.523-4.477 10-10 10h32c5.523 0 10-4.477 10-10v-114.812c0-5.523-4.478-10-10-10z"/><path d="m301.206 367.105c1.838 1.663 4.229 2.583 6.707 2.583h32c-2.479 0-4.869-.92-6.707-2.583l-36.15-32.69c-1.838-1.663-4.229-2.583-6.707-2.583h-32c2.479 0 4.869.92 6.707 2.583z"/></g><path d="m151.051 7.5-76.41 76.409h65.944c5.78 0 10.466-4.686 10.466-10.466z" fill="#bed9fd"/><g fill="#407194"><path d="m173.638 112.528v44.908c0 2.761 2.239 5 5 5h49.908v-49.908c0-2.761-2.239-5-5-5h-44.908c-2.761 0-5 2.238-5 5z"/><path d="m228.546 162.436h54.908v54.908h-54.908z"/><path d="m283.454 112.528v49.908h49.908c2.761 0 5-2.239 5-5v-44.908c0-2.761-2.239-5-5-5h-44.908c-2.761 0-5 2.238-5 5z"/><path d="m173.638 222.344v44.908c0 2.761 2.239 5 5 5h44.908c2.761 0 5-2.239 5-5v-49.908h-49.908c-2.761 0-5 2.238-5 5z"/><path d="m283.454 217.344v49.908c0 2.761 2.239 5 5 5h44.908c2.761 0 5-2.239 5-5v-44.908c0-2.761-2.239-5-5-5z"/></g></g></g><g><path d="m453.939 362.188h-9.079v-344.218c0-9.908-8.061-17.97-17.97-17.97h-275.839c-1.989 0-3.896.79-5.304 2.196l-76.41 76.41c-1.406 1.407-2.196 3.314-2.196 5.304v81.649c0 4.143 3.357 7.5 7.5 7.5s7.5-3.357 7.5-7.5v-74.149h58.445c9.906 0 17.965-8.06 17.965-17.966v-58.444h268.339c1.638 0 2.971 1.332 2.971 2.97v344.218h-89.946c-.622 0-1.218-.229-1.678-.645l-36.148-32.69c-3.224-2.915-7.393-4.521-11.738-4.521h-208.211v-123.772c0-4.143-3.357-7.5-7.5-7.5s-7.5 3.357-7.5 7.5v123.772h-9.079c-9.649 0-17.5 7.851-17.5 17.5v152.668c0 9.649 7.851 17.5 17.5 17.5h320.791c4.143 0 7.5-3.357 7.5-7.5s-3.357-7.5-7.5-7.5h-320.791c-1.379 0-2.5-1.121-2.5-2.5v-152.668c0-1.379 1.121-2.5 2.5-2.5h232.289c.621 0 1.216.229 1.677.646l36.15 32.692c3.224 2.913 7.392 4.518 11.737 4.518h114.025c1.379 0 2.5 1.121 2.5 2.5v114.812c0 1.379-1.121 2.5-2.5 2.5h-40.088c-4.143 0-7.5 3.357-7.5 7.5s3.357 7.5 7.5 7.5h40.088c9.649 0 17.5-7.851 17.5-17.5v-114.812c0-9.65-7.85-17.5-17.5-17.5zm-313.353-285.778h-47.839l50.804-50.804v47.838c0 1.636-1.33 2.966-2.965 2.966z"/><path d="m151.717 397.074c-4.143 0-7.5 3.357-7.5 7.5v63.039c0 4.143 3.357 7.5 7.5 7.5s7.5-3.357 7.5-7.5v-19.923c3.622-.019 7.68-.037 9.992-.037 14.137 0 25.638-11.345 25.638-25.289 0-13.945-11.501-25.29-25.638-25.29zm28.13 25.29c0 5.577-4.871 10.289-10.638 10.289-2.313 0-6.365.018-9.992.036v-20.615h9.992c5.767 0 10.638 4.712 10.638 10.29z"/><path d="m333.135 412.074c4.814 0 9.457 1.417 13.425 4.098 3.433 2.317 8.095 1.416 10.413-2.017 2.318-3.432 1.416-8.094-2.017-10.413-6.457-4.362-14.003-6.668-21.821-6.668-21.516 0-39.02 17.504-39.02 39.02s17.504 39.02 39.02 39.02c20.437 0 34.71-16.046 34.71-39.02 0-4.143-3.357-7.5-7.5-7.5h-18.858c-4.143 0-7.5 3.357-7.5 7.5s3.357 7.5 7.5 7.5h10.547c-1.946 8.692-7.583 16.52-18.898 16.52-13.244 0-24.02-10.775-24.02-24.02s10.775-24.02 24.019-24.02z"/><path d="m221.173 397.531c-3.133.977-5.268 3.878-5.268 7.16v62.923c0 4.143 3.357 7.5 7.5 7.5s7.5-3.357 7.5-7.5v-38.863l28.875 41.813c2.22 3.206 5.918 4.57 9.414 3.478 3.575-1.117 5.886-4.474 5.886-8.624l-.589-60.915c-.04-4.117-3.39-7.428-7.498-7.428-.025 0-.05 0-.074 0-4.143.04-7.468 3.431-7.428 7.572l.384 39.657-30.298-43.874c-1.865-2.701-5.267-3.873-8.404-2.899z"/><path d="m178.639 209.844c-6.893 0-12.5 5.607-12.5 12.5v44.907c0 6.893 5.607 12.5 12.5 12.5h44.907c6.893 0 12.5-5.607 12.5-12.5v-42.407h39.908v42.407c0 6.893 5.607 12.5 12.5 12.5h44.907c6.893 0 12.5-5.607 12.5-12.5v-44.907c0-6.893-5.607-12.5-12.5-12.5h-42.407v-39.908h42.407c6.893 0 12.5-5.607 12.5-12.5v-44.907c0-6.893-5.607-12.5-12.5-12.5h-44.907c-6.893 0-12.5 5.607-12.5 12.5v42.407h-39.908v-42.407c0-6.893-5.607-12.5-12.5-12.5h-44.907c-6.893 0-12.5 5.607-12.5 12.5v44.907c0 6.893 5.607 12.5 12.5 12.5h42.407v39.908zm42.407 54.907h-39.907v-39.907h39.907zm109.815 0h-39.907v-39.907h39.907zm-39.907-149.723h39.907v39.907h-39.907zm-15 94.816h-39.908v-39.908h39.908zm-94.815-94.816h39.907v39.907h-39.907z"/></g></g></svg>