<?xml version="1.0" encoding="iso-8859-1"?>
<!-- Generator: Adobe Illustrator 19.0.0, SVG Export Plug-In . SVG Version: 6.00 Build 0)  -->
<svg version="1.1" id="Capa_1" xmlns="http://www.w3.org/2000/svg" xmlns:xlink="http://www.w3.org/1999/xlink" x="0px" y="0px"
	 viewBox="0 0 400 400" style="enable-background:new 0 0 400 400;" xml:space="preserve">
<path style="fill:#FFDC69;" d="M312,0H112C94.328,0,80,14.328,80,32v8H32C14.328,40,0,54.328,0,72v40c0,17.672,14.328,32,32,32h48
	v56v104v32c0,17.68,14.32,32,32,32h24h24c0,17.672,14.328,32,32,32h96c17.672,0,32-14.328,32-32h24h24c17.672,0,32-14.328,32-32V88
	v-8L320,0H312z M272,72c0-17.672-14.328-32-32-32C257.68,40,272,54.32,272,72z M272,112c0,17.68-14.32,32-32,32
	C257.672,144,272,129.672,272,112z"/>
<path style="fill:#FF8C5A;" d="M272,72v40c0,17.672-14.328,32-32,32H32c-17.672,0-32-14.328-32-32V72c0-17.672,14.328-32,32-32h208
	C257.672,40,272,54.328,272,72z"/>
<path style="fill:#FEEC9F;" d="M288,400h-96c-17.672,0-32-14.328-32-32v-80c0-17.672,14.328-32,32-32h96c17.672,0,32,14.328,32,32
	v80C320,385.672,305.672,400,288,400z"/>
<path style="fill:#FFB855;" d="M320,0h-8v56c0,17.672,14.328,32,32,32h56v-8L320,0z"/>
<g>
	<polygon style="fill:#FFFFFF;" points="216,320 200,320 200,288 232,288 232,304 216,304 	"/>
	<polygon style="fill:#FFFFFF;" points="232,368 200,368 200,336 216,336 216,352 232,352 	"/>
	<polygon style="fill:#FFFFFF;" points="280,320 264,320 264,304 248,304 248,288 280,288 	"/>
	<polygon style="fill:#FFFFFF;" points="280,368 248,368 248,352 264,352 264,336 280,336 	"/>
	<rect x="24" y="104" style="fill:#FFFFFF;" width="16" height="16"/>
	<path style="fill:#FFFFFF;" d="M71.368,120.968c14.44,0,21.992-9.144,21.992-18.168c0-7.448-3.744-12.688-11.112-15.6l-7.96-3.12
		c-4.104-1.576-6.072-2.416-6.072-4.096c0-2.464,3.016-2.824,4.816-2.824c3.56,0,6.56,1.088,10.344,3.76l0.648,0.456l8.12-10.2
		l-0.536-0.528c-4.768-4.68-11.712-7.488-18.568-7.488c-11.96,0-20.984,7.592-20.984,17.664c0,7.168,4.168,12.936,11.416,15.832
		l6.768,2.832l1.168,0.464c3.896,1.544,5.616,2.296,5.616,4.008c0,0.824,0,2.984-5.312,2.984c-3.6,0-8.248-1.936-12.136-5.056
		l-0.64-0.512l-9.2,11.08l0.6,0.536C55.864,117.984,63.736,120.968,71.368,120.968z"/>
	<path style="fill:#FFFFFF;" d="M128.24,119.968l16.488-55.808h-16.44l-5.648,24.288c-0.64,2.592-1.208,5.16-1.792,7.728
		c-0.496,2.224-1,4.504-1.552,6.808c-0.472-1.952-0.888-3.888-1.304-5.784c-0.624-2.856-1.272-5.816-2.04-8.744l-5.824-24.296
		H93.192l16.488,55.808L128.24,119.968L128.24,119.968z"/>
	<path style="fill:#FFFFFF;" d="M173.048,77.168c4.056,0,6.208,1.208,8.768,3.456l0.624,0.544l8.384-9.448l0.528-0.584l-0.56-0.56
		c-4.784-4.784-11.144-7.416-17.912-7.416c-16.568,0-28.152,12.064-28.152,29.32c0,17.304,10.92,28.488,27.824,28.488
		c8.072,0,15.2-3.544,19.184-6.856l0.304-0.256v-27.04h-22.336v13.344h7.992v6.16c-0.816,0.4-2.064,0.64-3.32,0.64
		c-8.952,0-13.304-4.888-13.304-14.968C161.072,83.128,165.88,77.168,173.048,77.168z"/>
</g>
<g>
</g>
<g>
</g>
<g>
</g>
<g>
</g>
<g>
</g>
<g>
</g>
<g>
</g>
<g>
</g>
<g>
</g>
<g>
</g>
<g>
</g>
<g>
</g>
<g>
</g>
<g>
</g>
<g>
</g>
</svg>
